:SAMPLES-PER-SECOND 30
:FULLY-SPECIFIED
:DEGREES
141
root  35.02317714 36.44556361 -14.76948055 12.49089432 14.95685291 5.871555805
lowerback  -8.897470474 3.795480251 4.127129555
upperback  -4.347070217 4.407380104 -5.115139961
thorax  1.174299955 1.954380035 -7.236559868
lowerneck  -14.94909954 -6.782360077 -2.888750076
upperneck  11.46640015 -10.01119995 8.181030273
head  6.514019966 -4.420780182 2.042469978
lclavicle  0 -4.497500157e-015 -2.743230041e-014
lhumerus  -43.19729996 29.57929993 65.69159698
lradius  -0.1097006351 -6.507048965e-006 24.5979023
lwrist  4.824992743e-007 -3.790274832e-007 -37.73500061
lhand  -0 -36.74980164 -10.67959976
lfingers  90 7.125020027 -90
lthumb  94.74662508 -25.52065177 100.908754
rclavicle  0 -4.497500157e-015 -2.743230041e-014
rhumerus  69.49269867 -12.99129963 -59.34930038
rradius  -5.16745672e-007 2.214343908e-008 34.6291008
rwrist  1.380293725e-006 2.528095422e-007 -151.3710022
rhand  -1.772290075e-031 4.993859768 -5.817249775
rfingers  -90 -7.125020027 -90
rthumb  -84.04370818 -10.04436399 -59.11200053
rfemur  -14.92922306 9.377409935 14.1224699
rtibia  -4.021941662 1.773542047 25.48506165
rfoot  -3.597865343 -13.62267494 -45.97432709
rtoes  4.018955064 19.60825739 -101.8247688
lfemur  -12.97746658 -24.59064293 -19.41435814
ltibia  3.655085802 2.598573208 14.61975479
lfoot  0.9727005363 -30.12293243 28.35104179
ltoes  -8.641670452 -18.10601537 -116.0601526
142
root  35.02561014 36.44496587 -14.77102144 12.50582027 14.97807026 5.897828579
lowerback  -8.88547039 3.785319805 4.096469879
upperback  -4.345687389 4.396130085 -5.097579956
thorax  1.155480027 1.948449969 -7.202229977
lowerneck  -14.87320042 -6.801939964 -2.876610041
upperneck  11.43039989 -10.03390026 8.157710075
head  6.48898983 -4.436170101 2.033390045
lclavicle  0 -4.497500157e-015 -2.743230041e-014
lhumerus  -43.23590088 29.55629921 65.70310211
lradius  -0.1098898947 -6.507048965e-006 24.6235981
lwrist  4.824992743e-007 -3.790274832e-007 -37.68180084
lhand  -4.409114963e-031 -36.78680038 -10.62679958
lfingers  90 7.125020027 -90
lthumb  94.75286004 -25.46752216 100.9435516
rclavicle  0 -4.497500157e-015 -2.743230041e-014
rhumerus  69.55740356 -12.98869991 -59.44520187
rradius  -5.16745672e-007 2.214343908e-008 34.53530121
rwrist  1.380293725e-006 2.528095422e-007 -151.1779938
rhand  -1.771977825e-031 4.876949787 -6.405189991
rfingers  -90 -7.125020027 -90
rthumb  -84.37901918 -9.533044396 -59.278327
rfemur  -14.94026375 9.379852295 14.09877777
rtibia  -4.035919189 1.751107812 25.50665665
rfoot  -3.618154049 -13.63088322 -46.00269699
rtoes  3.994110764 19.61314136 -101.7507454
lfemur  -12.98399067 -24.63025665 -19.44103813
ltibia  3.655752897 2.584867239 14.61765289
lfoot  0.9685775638 -30.09537888 28.33929825
ltoes  -8.626732795 -18.11295114 -116.0120959
143
root  35.02724715 36.44485173 -14.77254582 12.51504517 14.98060703 5.908716202
lowerback  -8.884969711 3.822360039 4.164219379
upperback  -4.347955227 4.440649986 -5.154779911
thorax  1.177809954 1.970340014 -7.297110081
lowerneck  -14.84430027 -6.850259781 -2.825510025
upperneck  11.42920017 -10.11380005 8.161419868
head  6.486020088 -4.474319935 2.018320084
lclavicle  0 -4.497500157e-015 -2.743230041e-014
lhumerus  -43.21699905 29.48730087 65.69450378
lradius  -0.1100761294 -6.507048965e-006 24.65940094
lwrist  4.824992743e-007 -3.790274832e-007 -37.66180038
lhand  -4.408804191e-031 -36.78139877 -10.56739998
lfingers  90 7.125020027 -90
lthumb  94.73786758 -25.40943696 100.9324231
rclavicle  0 -4.497500157e-015 -2.743230041e-014
rhumerus  69.50189972 -13.08180046 -59.42290115
rradius  -5.16745672e-007 2.214343908e-008 34.51210022
rwrist  1.380293725e-006 2.528095422e-007 -151.0540009
rhand  -1.772135592e-031 4.936369896 -6.2323699
rfingers  -90 -7.125020027 -90
rthumb  -84.27444194 -9.684869916 -59.20524015
rfemur  -14.9460659 9.357996941 14.09137535
rtibia  -4.047636509 1.719597936 25.50278854
rfoot  -3.620016336 -13.65555763 -46.00361252
rtoes  4.012131556 19.60960194 -101.8044365
lfemur  -13.03516579 -24.65476418 -19.43177605
ltibia  3.63380146 2.582190275 14.67476463
lfoot  0.9875273108 -30.11878967 28.36628723
ltoes  -8.598164115 -18.12617419 -115.9202355
144
root  35.02783588 36.44483972 -14.77354756 12.52119827 14.99322033 5.917929649
lowerback  -8.879180908 3.828089952 4.179500103
upperback  -4.352047443 4.446790218 -5.17896986
thorax  1.177680016 1.972769976 -7.331480026
lowerneck  -14.82789993 -6.871039867 -2.790829897
upperneck  11.44209957 -10.15100002 8.154120445
head  6.487360001 -4.492080212 2.006690025
lclavicle  0 -4.497500157e-015 -2.743230041e-014
lhumerus  -43.21480179 29.49390221 65.65470123
lradius  -0.1102593467 -6.507048965e-006 24.64139748
lwrist  4.824992743e-007 -3.790274832e-007 -37.68980026
lhand  -4.414131695e-031 -36.87379837 -10.66059971
lfingers  90 7.125020027 -90
lthumb  94.80071568 -25.4976377 101.0396607
rclavicle  0 -4.497500157e-015 -2.743230041e-014
rhumerus  69.3986969 -13.08870029 -59.30730057
rradius  -5.16745672e-007 2.214343908e-008 34.55619812
rwrist  1.380293725e-006 2.528095422e-007 -151.1569977
rhand  -1.772438771e-031 5.048570156 -6.01075983
rfingers  -90 -7.125020027 -90
rthumb  -84.1304384 -9.881284312 -59.07586599
rfemur  -14.94167423 9.312821388 14.08396626
rtibia  -4.055944443 1.674121499 25.48857498
rfoot  -3.621945143 -13.70965767 -46.00125885
rtoes  4.012487098 19.60953194 -101.8054959
lfemur  -13.1245575 -24.74108124 -19.41054726
ltibia  3.590708494 2.537590265 14.79097748
lfoot  0.985687077 -30.07470512 28.37321854
ltoes  -8.571644587 -18.13839975 -115.8350218
145
root  35.02956901 36.44496587 -14.77578982 12.53214836 14.9927969 5.93972826
lowerback  -8.878809929 3.824189901 4.165459633
upperback  -4.355909824 4.442749977 -5.172090054
thorax  1.175666332 1.970939994 -7.316500187
lowerneck  -14.83080006 -6.880829811 -2.815429926
upperneck  11.4968996 -10.17010021 8.180390358
head  6.50924015 -4.499120235 2.005570173
lclavicle  0 -4.497500157e-015 -2.743230041e-014
lhumerus  -43.2120018 29.42490005 65.69159698
lradius  -0.1104395688 -6.507048965e-006 24.65880013
lwrist  4.824992743e-007 -3.790274832e-007 -37.58269882
lhand  -4.426003855e-031 -37.07820129 -10.80109978
lfingers  90 7.125020027 -90
lthumb  94.92688575 -25.62808275 101.2713858
rclavicle  0 -4.497500157e-015 -2.743230041e-014
rhumerus  69.45429993 -13.09879875 -59.61520004
rradius  -5.16745672e-007 2.214343908e-008 34.52429962
rwrist  1.380293725e-006 2.528095422e-007 -150.8059998
rhand  -1.772030049e-031 4.896699905 -6.091020107
rfingers  -90 -7.125020027 -90
rthumb  -84.21112968 -9.804137589 -59.23168807
rfemur  -14.96154976 9.315835953 14.06150818
rtibia  -4.069664478 1.658342957 25.51838303
rfoot  -3.642874241 -13.71402359 -46.0147934
rtoes  4.01554355 19.60892992 -101.8146032
lfemur  -13.12201309 -24.75292206 -19.43596649
ltibia  3.596996784 2.534859419 14.77367592
lfoot  0.9949622154 -30.06178474 28.39542389
ltoes  -8.581101975 -18.13404528 -115.8654043
146
root  35.03226633 36.44493884 -14.77778728 12.52702141 14.98649216 5.942620277
lowerback  -8.897109985 3.806269646 4.101559639
upperback  -4.358401299 4.42222023 -5.149069786
thorax  1.17268002 1.960860014 -7.256599903
lowerneck  -14.78820038 -6.875030041 -2.833309889
upperneck  11.51799965 -10.16189957 8.184060097
head  6.509172916 -4.501879692 2.009057045
lclavicle  0 -4.497500157e-015 -2.743230041e-014
lhumerus  -43.2983017 29.52120018 65.64060211
lradius  -0.1106168032 -6.507048965e-006 24.68600082
lwrist  4.824992743e-007 -3.790274832e-007 -37.58039856
lhand  -4.428270988e-031 -37.11700058 -10.7968998
lfingers  90 7.125020027 -90
lthumb  94.94423724 -25.62251014 101.3124866
rclavicle  0 -4.497500157e-015 -2.743230041e-014
rhumerus  69.41480255 -13.05290031 -59.59609985
rradius  -5.16745672e-007 2.214343908e-008 34.56029892
rwrist  1.380293725e-006 2.528095422e-007 -150.8919983
rhand  -0 5.116889954 -6.105410099
rfingers  -90 -7.125020027 -90
rthumb  -84.16230436 -9.80379832 -59.01740702
rfemur  -14.98267269 9.413816452 14.05551624
rtibia  -4.081329346 1.719565511 25.55690575
rfoot  -3.643343687 -13.57926846 -46.04686356
rtoes  4.016858216 19.60867082 -101.8185206
lfemur  -13.13182735 -24.69237137 -19.44355774
ltibia  3.589806557 2.5575459 14.79129124
lfoot  1.00897634 -30.12604523 28.38895988
ltoes  -8.573393685 -18.13759486 -115.8406404
147
root  35.03590081 36.44453034 -14.77999499 12.52243328 14.98489094 5.949694633
lowerback  -8.910460472 3.792929649 4.070189953
upperback  -4.357009888 4.405260086 -5.14041996
thorax  1.168660045 1.951969981 -7.230800152
lowerneck  -14.79170036 -6.878277302 -2.839139938
upperneck  11.59780025 -10.17020035 8.160900116
head  6.534599304 -4.502753735 2.014128447
lclavicle  0 -4.497500157e-015 -2.743230041e-014
lhumerus  -43.30929947 29.50860214 65.6391983
lradius  -0.1107910499 -6.507048965e-006 24.66850281
lwrist  4.824992743e-007 -3.790274832e-007 -37.48690033
lhand  -4.421075406e-031 -36.99359894 -10.73900032
lfingers  90 7.125020027 -90
lthumb  94.87364258 -25.57032378 101.1749705
rclavicle  0 -4.497500157e-015 -2.743230041e-014
rhumerus  69.28659821 -12.97140026 -59.30020142
rradius  -5.16745672e-007 2.214343908e-008 34.64239883
rwrist  1.380293725e-006 2.528095422e-007 -151.1089935
rhand  -1.773272061e-031 5.344679832 -6.189730167
rfingers  -90 -7.125020027 -90
rthumb  -84.14803469 -9.744171156 -58.80205063
rfemur  -14.9671936 9.256220818 14.04765701
rtibia  -4.073785782 1.643264413 25.53936386
rfoot  -3.625576258 -13.72742558 -45.91579056
rtoes  4.002570987 19.61148178 -101.7759506
lfemur  -13.13153553 -24.62406731 -19.45517159
ltibia  3.588779211 2.596978903 14.79067516
lfoot  1.032947063 -30.21904945 28.39917183
ltoes  -8.621687307 -18.11529044 -115.9958678
